<svg width="17" height="16" viewBox="0 0 17 16" fill="none" xmlns="http://www.w3.org/2000/svg">
<path d="M4.11529 13.9187C3.78304 14.1405 3.33765 13.9024 3.33765 13.5029V4.01168C3.33765 2.90851 4.23089 2.01366 5.33406 2.01168L11.3341 2.00092C12.4386 1.99895 13.3357 2.89278 13.3376 3.99734V13.5029C13.3376 13.9024 12.8923 14.1405 12.56 13.9187L8.33765 11.0994L4.11529 13.9187ZM12.3376 4.00092L12.3307 3.88253C12.2721 3.38529 11.8487 3.00001 11.3359 3.00092L5.33586 3.01168C4.78427 3.01267 4.33765 3.46009 4.33765 4.01168V12.5678L8.06 10.0824C8.22809 9.97018 8.44721 9.97018 8.61529 10.0824L12.3376 12.5678V4.00092Z" fill="white"/>
</svg>
