<svg width="17" height="16" viewBox="0 0 17 16" fill="none" xmlns="http://www.w3.org/2000/svg">
<path d="M7.63599 1.5C7.63599 1.22386 7.41213 1 7.13599 1C6.85984 1 6.63599 1.22386 6.63599 1.5V2.3C6.63599 2.58901 6.70811 2.86118 6.83533 3.09949C5.96934 3.35179 5.2976 4.05998 5.09729 4.94688C4.65548 4.80407 4.33594 4.38935 4.33594 3.9V2.5C4.33594 2.22386 4.11208 2 3.83594 2C3.5598 2 3.33594 2.22386 3.33594 2.5V3.9C3.33594 4.923 4.06743 5.77515 5.03589 5.96194V7H2.83594C2.5598 7 2.33594 7.22386 2.33594 7.5C2.33594 7.77614 2.5598 8 2.83594 8H5.03589V9.7C5.03589 9.80799 5.04108 9.91478 5.05122 10.0201C4.0815 10.1583 3.33594 10.9921 3.33594 12V13.5C3.33594 13.7761 3.5598 14 3.83594 14C4.11208 14 4.33594 13.7761 4.33594 13.5V12C4.33594 11.4591 4.76546 11.0184 5.30206 11.0006C5.80681 12.1764 6.97517 13 8.33589 13C9.69661 13 10.865 12.1764 11.3697 11.0006C11.9064 11.0184 12.3359 11.459 12.3359 12V13.5C12.3359 13.7761 12.5598 14 12.8359 14C13.1121 14 13.3359 13.7761 13.3359 13.5V12C13.3359 10.9921 12.5903 10.1583 11.6206 10.0201C11.6307 9.91477 11.6359 9.80799 11.6359 9.7V8H13.8359C14.1121 8 14.3359 7.77614 14.3359 7.5C14.3359 7.22386 14.1121 7 13.8359 7H11.6359V5.96196C12.6044 5.77521 13.3359 4.92303 13.3359 3.9V2.5C13.3359 2.22386 13.1121 2 12.8359 2C12.5598 2 12.3359 2.22386 12.3359 2.5V3.9C12.3359 4.38939 12.0164 4.80412 11.5745 4.94691C11.3742 4.06005 10.7025 3.35188 9.83662 3.09953C9.96386 2.86122 10.036 2.58903 10.036 2.3V1.5C10.036 1.22386 9.81213 1 9.53599 1C9.25984 1 9.03599 1.22386 9.03599 1.5V2.3C9.03599 2.6866 8.72259 3 8.33599 3C7.94939 3 7.63599 2.6866 7.63599 2.3V1.5ZM6.03594 7.5L6.03589 7.49294V5.50999L6.03599 5.5L6.03591 5.49135C6.04057 4.6669 6.71035 4 7.53589 4H9.13589C9.96432 4 10.6359 4.67157 10.6359 5.5V9.7C10.6359 10.9703 9.60614 12 8.33589 12C7.06563 12 6.03589 10.9703 6.03589 9.7V7.50706L6.03594 7.5Z" fill="white"/>
</svg>
