<svg width="17" height="16" viewBox="0 0 17 16" fill="none" xmlns="http://www.w3.org/2000/svg">
<path d="M4.04952 5.25789C3.85895 4.0016 4.74556 2.87044 6.10106 2.45589C6.60025 2.30322 7.13207 2.56524 7.31521 3.05407L7.74977 4.21405C7.8928 4.59584 7.78974 5.02623 7.48929 5.30181L6.19678 6.48738C6.06735 6.6061 6.00987 6.78486 6.04509 6.95693L6.05657 7.00916C6.06371 7.04035 6.07423 7.08449 6.08841 7.13968C6.11673 7.24995 6.15987 7.40502 6.22025 7.58965C6.34038 7.95694 6.53193 8.45094 6.81693 8.94457C7.10193 9.43821 7.43397 9.85109 7.69199 10.1388C7.82169 10.2834 7.93442 10.3983 8.01575 10.4779C8.05646 10.5178 8.08943 10.549 8.11287 10.5708L8.153 10.6074C8.28441 10.7239 8.46732 10.763 8.63485 10.7102L10.3078 10.1837C10.6967 10.0613 11.121 10.1872 11.3801 10.502L12.1716 11.4634C12.501 11.8635 12.4623 12.4509 12.0832 12.8044C11.046 13.7713 9.62007 13.9694 8.62749 13.1718C7.6706 12.403 6.54446 11.2603 5.6037 9.64314C4.66075 8.02216 4.23383 6.4729 4.04952 5.25789ZM7.09257 7.02268L8.16525 6.03875C8.76615 5.48757 8.97228 4.6268 8.68622 3.86323L8.25165 2.70325C7.88315 1.71964 6.81305 1.19242 5.8086 1.49961C4.12597 2.01421 2.77493 3.52305 3.06083 5.40786C3.2605 6.72414 3.72231 8.39771 4.73931 10.146C5.75219 11.8871 6.9662 13.1198 8.00112 13.9514C9.48857 15.1466 11.4753 14.7384 12.7651 13.5358C13.5307 12.8221 13.6089 11.6359 12.9436 10.8278L12.1521 9.8664C11.6339 9.23688 10.7854 8.985 10.0076 9.22981L8.61916 9.66682C8.56576 9.61194 8.5039 9.54631 8.43643 9.47109C8.20831 9.21673 7.92295 8.86025 7.68296 8.44457C7.44296 8.02889 7.27692 7.60352 7.17071 7.27878C7.1393 7.18274 7.11339 7.09636 7.09257 7.02268Z" fill="white"/>
</svg>
