<svg width="17" height="16" viewBox="0 0 17 16" fill="none" xmlns="http://www.w3.org/2000/svg">
<path d="M8.33594 7C8.61208 7 8.83594 7.22386 8.83594 7.5V10.5C8.83594 10.7761 8.61208 11 8.33594 11C8.05979 11 7.83594 10.7761 7.83594 10.5V7.5C7.83594 7.22386 8.05979 7 8.33594 7ZM8.33595 6.24907C8.74963 6.24907 9.08498 5.91371 9.08498 5.50003C9.08498 5.08635 8.74963 4.751 8.33595 4.751C7.92227 4.751 7.58691 5.08635 7.58691 5.50003C7.58691 5.91371 7.92227 6.24907 8.33595 6.24907ZM2.33594 8C2.33594 4.68629 5.02223 2 8.33594 2C11.6496 2 14.3359 4.68629 14.3359 8C14.3359 11.3137 11.6496 14 8.33594 14C5.02223 14 2.33594 11.3137 2.33594 8ZM8.33594 3C5.57451 3 3.33594 5.23858 3.33594 8C3.33594 10.7614 5.57451 13 8.33594 13C11.0974 13 13.3359 10.7614 13.3359 8C13.3359 5.23858 11.0974 3 8.33594 3Z" fill="white"/>
</svg>
