<svg width="17" height="16" viewBox="0 0 17 16" fill="none" xmlns="http://www.w3.org/2000/svg">
<path d="M4.83594 2C3.45523 2 2.33594 3.11929 2.33594 4.5V11.5C2.33594 12.8807 3.45523 14 4.83594 14H11.8359C13.2166 14 14.3359 12.8807 14.3359 11.5V4.5C14.3359 3.11929 13.2166 2 11.8359 2H4.83594ZM13.3359 8H10.8359L10.7461 8.00806C10.5128 8.05039 10.3359 8.25454 10.3359 8.5C10.3359 8.55217 10.3281 8.66189 10.3037 8.80843C10.2625 9.05536 10.1887 9.30145 10.0762 9.52639C9.76749 10.1439 9.23327 10.5 8.33594 10.5C7.4386 10.5 6.90438 10.1439 6.59565 9.52639C6.48318 9.30145 6.40935 9.05536 6.3682 8.80843C6.34377 8.66189 6.33594 8.55217 6.33594 8.5C6.33594 8.22386 6.11208 8 5.83594 8H3.33594V4.5C3.33594 3.67157 4.00751 3 4.83594 3H11.8359C12.6644 3 13.3359 3.67157 13.3359 4.5V8ZM3.33594 9H5.37994L5.41533 9.17401C5.47224 9.42568 5.56356 9.69828 5.70122 9.97361C6.17374 10.9186 7.04577 11.5 8.33594 11.5C9.6261 11.5 10.4981 10.9186 10.9707 9.97361L11.0654 9.76791C11.1518 9.56329 11.2139 9.36276 11.2565 9.17401L11.2909 9H13.3359V11.5C13.3359 12.3284 12.6644 13 11.8359 13H4.83594C4.00751 13 3.33594 12.3284 3.33594 11.5V9Z" fill="white"/>
</svg>
