<svg width="17" height="16" viewBox="0 0 17 16" fill="none" xmlns="http://www.w3.org/2000/svg">
<path d="M11.8359 8C12.6644 8 13.3359 8.67157 13.3359 9.5V10C13.3359 11.9714 11.4764 14 8.33594 14C5.19545 14 3.33594 11.9714 3.33594 10V9.5C3.33594 8.67157 4.00751 8 4.83594 8H11.8359ZM11.8359 9H4.83594C4.5598 9 4.33594 9.22386 4.33594 9.5V10C4.33594 11.4376 5.76809 13 8.33594 13C10.9038 13 12.3359 11.4376 12.3359 10V9.5C12.3359 9.22386 12.1121 9 11.8359 9ZM8.33594 1.5C9.85472 1.5 11.0859 2.73122 11.0859 4.25C11.0859 5.76878 9.85472 7 8.33594 7C6.81715 7 5.58594 5.76878 5.58594 4.25C5.58594 2.73122 6.81715 1.5 8.33594 1.5ZM8.33594 2.5C7.36944 2.5 6.58594 3.2835 6.58594 4.25C6.58594 5.2165 7.36944 6 8.33594 6C9.30244 6 10.0859 5.2165 10.0859 4.25C10.0859 3.2835 9.30244 2.5 8.33594 2.5Z" fill="white"/>
</svg>
