<svg width="16" height="16" viewBox="0 0 16 16" fill="none" xmlns="http://www.w3.org/2000/svg">
<path d="M4.53174 12.7891C4.34945 12.7891 4.16976 12.8229 3.99268 12.8906C3.81559 12.9583 3.63851 13.0312 3.46143 13.1094C3.28955 13.1875 3.11507 13.2604 2.93799 13.3281C2.7609 13.3958 2.58122 13.4297 2.39893 13.4297C2.24268 13.4297 2.09945 13.3984 1.96924 13.3359C1.83903 13.2682 1.72184 13.1745 1.61768 13.0547C1.54997 12.9766 1.46924 12.8724 1.37549 12.7422C1.28695 12.612 1.1932 12.4688 1.09424 12.3125C0.99528 12.1562 0.896322 11.9922 0.797363 11.8203C0.698405 11.6432 0.609863 11.474 0.531738 11.3125C0.458822 11.1458 0.398926 10.9896 0.352051 10.8438C0.305176 10.6979 0.281738 10.5755 0.281738 10.4766C0.281738 10.2891 0.328613 10.1224 0.422363 9.97656C0.516113 9.82552 0.630697 9.6901 0.766113 9.57031C0.906738 9.44531 1.05778 9.32812 1.21924 9.21875C1.3859 9.10938 1.53695 8.99479 1.67236 8.875C1.81299 8.75 1.93018 8.61979 2.02393 8.48438C2.11768 8.34375 2.16455 8.18229 2.16455 8C2.16455 7.82292 2.11768 7.66406 2.02393 7.52344C1.93018 7.38281 1.81299 7.2526 1.67236 7.13281C1.53174 7.00781 1.3807 6.88802 1.21924 6.77344C1.05778 6.65885 0.906738 6.53906 0.766113 6.41406C0.625488 6.28385 0.508301 6.14583 0.414551 6C0.320801 5.85417 0.273926 5.6875 0.273926 5.5C0.273926 5.40625 0.297363 5.28646 0.344238 5.14062C0.396322 4.99479 0.461426 4.83854 0.539551 4.67188C0.617676 4.50521 0.706217 4.33594 0.805176 4.16406C0.909342 3.98698 1.0109 3.82031 1.10986 3.66406C1.21403 3.5026 1.31299 3.35677 1.40674 3.22656C1.50049 3.09635 1.58122 2.99479 1.64893 2.92188C1.75309 2.80729 1.87028 2.71875 2.00049 2.65625C2.1359 2.59375 2.27913 2.5625 2.43018 2.5625C2.61247 2.5625 2.78955 2.59635 2.96143 2.66406C3.1333 2.73177 3.30518 2.80729 3.47705 2.89062C3.64893 2.96875 3.8208 3.04167 3.99268 3.10938C4.16976 3.17708 4.34945 3.21094 4.53174 3.21094C4.76611 3.21094 4.96663 3.14062 5.1333 3C5.30518 2.85417 5.41195 2.66667 5.45361 2.4375C5.50049 2.18229 5.54736 1.92708 5.59424 1.67188C5.64111 1.41667 5.68799 1.16146 5.73486 0.90625C5.77653 0.6875 5.87028 0.507812 6.01611 0.367188C6.16715 0.226562 6.35205 0.135417 6.5708 0.09375C6.77913 0.0572917 6.99007 0.0338542 7.20361 0.0234375C7.41715 0.0078125 7.62809 0 7.83643 0C8.05518 0 8.27393 0.0078125 8.49268 0.0234375C8.71143 0.0390625 8.92757 0.0677083 9.14111 0.109375C9.35986 0.151042 9.53955 0.242188 9.68018 0.382812C9.8208 0.523438 9.91195 0.703125 9.95361 0.921875C10.0005 1.17708 10.0448 1.42969 10.0864 1.67969C10.1281 1.92969 10.1724 2.18229 10.2192 2.4375C10.2609 2.66146 10.3677 2.84635 10.5396 2.99219C10.7114 3.13802 10.9119 3.21094 11.1411 3.21094C11.3234 3.21094 11.5031 3.17708 11.6802 3.10938C11.8573 3.04167 12.0317 2.96875 12.2036 2.89062C12.3807 2.8125 12.5578 2.73958 12.7349 2.67188C12.9119 2.60417 13.0916 2.57031 13.2739 2.57031C13.4354 2.57031 13.5786 2.60417 13.7036 2.67188C13.8338 2.73438 13.951 2.82552 14.0552 2.94531C14.1229 3.02344 14.201 3.1276 14.2896 3.25781C14.3833 3.38802 14.4797 3.53125 14.5786 3.6875C14.6776 3.84375 14.7765 4.01042 14.8755 4.1875C14.9744 4.35938 15.0604 4.52865 15.1333 4.69531C15.2114 4.85677 15.2739 5.01042 15.3208 5.15625C15.3677 5.30208 15.3911 5.42448 15.3911 5.52344C15.3911 5.71615 15.3442 5.88542 15.2505 6.03125C15.1567 6.17708 15.0396 6.3125 14.8989 6.4375C14.7635 6.55729 14.6125 6.67188 14.4458 6.78125C14.2843 6.89062 14.1333 7.00781 13.9927 7.13281C13.8573 7.2526 13.7427 7.38281 13.6489 7.52344C13.5552 7.65885 13.5083 7.81771 13.5083 8C13.5083 8.17708 13.5552 8.33594 13.6489 8.47656C13.7427 8.61719 13.8599 8.75 14.0005 8.875C14.1411 8.99479 14.2922 9.11198 14.4536 9.22656C14.6151 9.34115 14.7661 9.46354 14.9067 9.59375C15.0474 9.71875 15.1646 9.85417 15.2583 10C15.3521 10.1458 15.3989 10.3125 15.3989 10.5C15.3989 10.6042 15.3729 10.7292 15.3208 10.875C15.2739 11.0156 15.2114 11.1693 15.1333 11.3359C15.0552 11.5026 14.964 11.6719 14.8599 11.8438C14.7609 12.0156 14.6593 12.1797 14.5552 12.3359C14.4562 12.4922 14.3573 12.6354 14.2583 12.7656C14.1646 12.8958 14.0838 13 14.0161 13.0781C13.9119 13.1927 13.7948 13.2812 13.6646 13.3438C13.5396 13.4062 13.4015 13.4375 13.2505 13.4375C13.0786 13.4375 12.9015 13.4036 12.7192 13.3359C12.5422 13.2682 12.3651 13.1953 12.188 13.1172C12.0109 13.0339 11.8338 12.9583 11.6567 12.8906C11.4797 12.8229 11.3078 12.7891 11.1411 12.7891C10.9119 12.7891 10.7349 12.8359 10.6099 12.9297C10.4849 13.0234 10.3885 13.1458 10.3208 13.2969C10.2531 13.4427 10.2036 13.6068 10.1724 13.7891C10.1463 13.9661 10.1177 14.138 10.0864 14.3047C10.0604 14.4401 10.0343 14.5729 10.0083 14.7031C9.98747 14.8281 9.96403 14.9583 9.93799 15.0938C9.89632 15.3177 9.80257 15.5 9.65674 15.6406C9.5109 15.776 9.32601 15.8646 9.10205 15.9062C8.89372 15.9427 8.68278 15.9688 8.46924 15.9844C8.2609 15.9948 8.04997 16 7.83643 16C7.61768 16 7.39893 15.9922 7.18018 15.9766C6.96143 15.9609 6.74528 15.9323 6.53174 15.8906C6.31299 15.849 6.1333 15.7578 5.99268 15.6172C5.85205 15.4714 5.7609 15.2891 5.71924 15.0703C5.67236 14.8203 5.62809 14.5703 5.58643 14.3203C5.54476 14.0651 5.50049 13.8125 5.45361 13.5625C5.41195 13.3385 5.30518 13.1536 5.1333 13.0078C4.96143 12.862 4.7609 12.7891 4.53174 12.7891ZM8.95361 14.9219C8.97445 14.8073 8.99788 14.6667 9.02393 14.5C9.04997 14.3281 9.07861 14.1536 9.10986 13.9766C9.14111 13.7995 9.17497 13.6302 9.21143 13.4688C9.24788 13.3073 9.28434 13.1771 9.3208 13.0781C9.46663 12.6875 9.70101 12.375 10.0239 12.1406C10.3468 11.9062 10.7192 11.7891 11.1411 11.7891C11.2817 11.7891 11.4432 11.8151 11.6255 11.8672C11.813 11.9141 12.0031 11.9714 12.1958 12.0391C12.3937 12.1068 12.5838 12.1771 12.7661 12.25C12.9484 12.3229 13.1099 12.3854 13.2505 12.4375C13.4953 12.1458 13.7114 11.8385 13.8989 11.5156C14.0864 11.1875 14.2505 10.849 14.3911 10.5V10.4922L13.1958 9.47656C12.9771 9.29427 12.8078 9.07552 12.688 8.82031C12.5682 8.5599 12.5083 8.28646 12.5083 8C12.5083 7.71354 12.5682 7.4401 12.688 7.17969C12.813 6.91927 12.9849 6.69792 13.2036 6.51562L14.3833 5.53125V5.52344C14.3833 5.51823 14.3729 5.48958 14.3521 5.4375C14.3312 5.38021 14.3182 5.34896 14.313 5.34375C14.188 5.02083 14.0369 4.71354 13.8599 4.42188C13.688 4.125 13.4927 3.84115 13.2739 3.57031H13.2661L11.7974 4.10156C11.589 4.17448 11.3755 4.21094 11.1567 4.21094C10.8026 4.21094 10.4771 4.125 10.1802 3.95312C9.93018 3.8125 9.72184 3.625 9.55518 3.39062C9.39372 3.15625 9.28695 2.89844 9.23486 2.61719L8.96924 1.09375C8.59424 1.03125 8.21663 1 7.83643 1C7.64893 1 7.46143 1.00781 7.27393 1.02344C7.08643 1.03385 6.90153 1.05208 6.71924 1.07812C6.67236 1.33854 6.62809 1.59635 6.58643 1.85156C6.54476 2.10677 6.49528 2.36198 6.43799 2.61719C6.39111 2.84635 6.31038 3.0599 6.1958 3.25781C6.08122 3.45052 5.94059 3.61719 5.77393 3.75781C5.60726 3.89844 5.41976 4.01042 5.21143 4.09375C5.00309 4.17188 4.77913 4.21094 4.53955 4.21094C4.30518 4.21094 4.08382 4.17188 3.87549 4.09375H3.86768L2.43018 3.5625H2.42236C2.18278 3.85938 1.96663 4.16927 1.77393 4.49219C1.58122 4.8099 1.41715 5.14583 1.28174 5.5V5.50781L2.47705 6.52344C2.6958 6.70573 2.86507 6.92708 2.98486 7.1875C3.10465 7.44271 3.16455 7.71354 3.16455 8C3.16455 8.28646 3.10205 8.5599 2.97705 8.82031C2.85726 9.08073 2.68799 9.30208 2.46924 9.48438L1.28955 10.4688V10.4766C1.28955 10.4818 1.29997 10.513 1.3208 10.5703C1.34163 10.6224 1.35465 10.651 1.35986 10.6562C1.48486 10.9792 1.6333 11.2891 1.80518 11.5859C1.98226 11.8776 2.18018 12.1589 2.39893 12.4297H2.40674L3.87549 11.8984C4.08382 11.8255 4.29736 11.7891 4.51611 11.7891C4.87028 11.7891 5.1958 11.875 5.49268 12.0469C5.74268 12.1875 5.9484 12.375 6.10986 12.6094C6.27653 12.8438 6.3859 13.1016 6.43799 13.3828L6.70361 14.9062C7.07861 14.9688 7.45622 15 7.83643 15C8.02393 15 8.21143 14.9948 8.39893 14.9844C8.58643 14.9688 8.77132 14.9479 8.95361 14.9219ZM4.83643 8C4.83643 7.58333 4.91455 7.19271 5.0708 6.82812C5.22705 6.46354 5.44059 6.14583 5.71143 5.875C5.98226 5.60417 6.29997 5.39062 6.66455 5.23438C7.02913 5.07812 7.41976 5 7.83643 5C8.25309 5 8.64372 5.07812 9.0083 5.23438C9.37288 5.39062 9.69059 5.60417 9.96143 5.875C10.2323 6.14583 10.4458 6.46354 10.6021 6.82812C10.7583 7.19271 10.8364 7.58333 10.8364 8C10.8364 8.41667 10.7583 8.80729 10.6021 9.17188C10.4458 9.53646 10.2323 9.85417 9.96143 10.125C9.69059 10.3958 9.37288 10.6094 9.0083 10.7656C8.64372 10.9219 8.25309 11 7.83643 11C7.41976 11 7.02913 10.9219 6.66455 10.7656C6.29997 10.6094 5.98226 10.3958 5.71143 10.125C5.44059 9.85417 5.22705 9.53646 5.0708 9.17188C4.91455 8.80729 4.83643 8.41667 4.83643 8ZM9.83643 8C9.83643 7.72396 9.78434 7.46615 9.68018 7.22656C9.57601 6.98177 9.43278 6.76823 9.25049 6.58594C9.0682 6.40365 8.85465 6.26042 8.60986 6.15625C8.37028 6.05208 8.11247 6 7.83643 6C7.56038 6 7.29997 6.05208 7.05518 6.15625C6.81559 6.26042 6.60465 6.40365 6.42236 6.58594C6.24007 6.76823 6.09684 6.98177 5.99268 7.22656C5.88851 7.46615 5.83643 7.72396 5.83643 8C5.83643 8.27604 5.88851 8.53646 5.99268 8.78125C6.09684 9.02083 6.24007 9.23177 6.42236 9.41406C6.60465 9.59635 6.81559 9.73958 7.05518 9.84375C7.29997 9.94792 7.56038 10 7.83643 10C8.11247 10 8.37028 9.94792 8.60986 9.84375C8.85465 9.73958 9.0682 9.59635 9.25049 9.41406C9.43278 9.23177 9.57601 9.02083 9.68018 8.78125C9.78434 8.53646 9.83643 8.27604 9.83643 8Z" fill="white" fill-opacity="0.8956"/>
</svg>
